<mxfile host="app.diagrams.net" agent="Mozilla/5.0 (Windows NT 10.0; Win64; x64) AppleWebKit/537.36 (KHTML, like Gecko) Chrome/129.0.0.0 Safari/537.36" version="24.7.17">
  <diagram name="Page-1" id="MpuCAlIQQcXkTFpBEbb8">
    <mxGraphModel dx="3770" dy="1734" grid="1" gridSize="10" guides="1" tooltips="1" connect="1" arrows="1" fold="1" page="1" pageScale="1" pageWidth="827" pageHeight="1169" math="0" shadow="0">
      <root>
        <mxCell id="0" />
        <mxCell id="1" parent="0" />
        <mxCell id="iLG_4-NIddKdy0gWmFLI-3" value="" style="edgeStyle=orthogonalEdgeStyle;rounded=0;orthogonalLoop=1;jettySize=auto;html=1;" parent="1" source="iLG_4-NIddKdy0gWmFLI-1" target="iLG_4-NIddKdy0gWmFLI-2" edge="1">
          <mxGeometry relative="1" as="geometry" />
        </mxCell>
        <mxCell id="iLG_4-NIddKdy0gWmFLI-1" value="Start" style="ellipse;whiteSpace=wrap;html=1;" parent="1" vertex="1">
          <mxGeometry x="330" width="120" height="60" as="geometry" />
        </mxCell>
        <mxCell id="iLG_4-NIddKdy0gWmFLI-25" value="" style="edgeStyle=orthogonalEdgeStyle;rounded=0;orthogonalLoop=1;jettySize=auto;html=1;" parent="1" source="iLG_4-NIddKdy0gWmFLI-2" target="iLG_4-NIddKdy0gWmFLI-26" edge="1">
          <mxGeometry relative="1" as="geometry">
            <mxPoint x="390" y="170" as="targetPoint" />
          </mxGeometry>
        </mxCell>
        <mxCell id="iLG_4-NIddKdy0gWmFLI-2" value="Possible weather option:" style="shape=parallelogram;perimeter=parallelogramPerimeter;whiteSpace=wrap;html=1;fixedSize=1;" parent="1" vertex="1">
          <mxGeometry x="330" y="80" width="120" height="60" as="geometry" />
        </mxCell>
        <mxCell id="iLG_4-NIddKdy0gWmFLI-28" value="" style="edgeStyle=orthogonalEdgeStyle;rounded=0;orthogonalLoop=1;jettySize=auto;html=1;" parent="1" source="iLG_4-NIddKdy0gWmFLI-26" target="iLG_4-NIddKdy0gWmFLI-27" edge="1">
          <mxGeometry relative="1" as="geometry" />
        </mxCell>
        <mxCell id="iLG_4-NIddKdy0gWmFLI-26" value="bool correctEnter =&lt;div&gt;valse;&lt;/div&gt;" style="shape=parallelogram;perimeter=parallelogramPerimeter;whiteSpace=wrap;html=1;fixedSize=1;" parent="1" vertex="1">
          <mxGeometry x="330" y="160" width="120" height="60" as="geometry" />
        </mxCell>
        <mxCell id="iLG_4-NIddKdy0gWmFLI-68" value="" style="edgeStyle=orthogonalEdgeStyle;rounded=0;orthogonalLoop=1;jettySize=auto;html=1;" parent="1" source="iLG_4-NIddKdy0gWmFLI-27" target="iLG_4-NIddKdy0gWmFLI-67" edge="1">
          <mxGeometry relative="1" as="geometry" />
        </mxCell>
        <mxCell id="iLG_4-NIddKdy0gWmFLI-27" value="while&lt;div&gt;!correctEnter&lt;/div&gt;" style="rhombus;whiteSpace=wrap;html=1;" parent="1" vertex="1">
          <mxGeometry x="340" y="230" width="100" height="100" as="geometry" />
        </mxCell>
        <mxCell id="iLG_4-NIddKdy0gWmFLI-32" value="" style="edgeStyle=orthogonalEdgeStyle;rounded=0;orthogonalLoop=1;jettySize=auto;html=1;" parent="1" source="iLG_4-NIddKdy0gWmFLI-29" target="iLG_4-NIddKdy0gWmFLI-31" edge="1">
          <mxGeometry relative="1" as="geometry" />
        </mxCell>
        <mxCell id="iLG_4-NIddKdy0gWmFLI-54" value="True" style="edgeLabel;html=1;align=center;verticalAlign=middle;resizable=0;points=[];" parent="iLG_4-NIddKdy0gWmFLI-32" vertex="1" connectable="0">
          <mxGeometry x="-0.1714" y="1" relative="1" as="geometry">
            <mxPoint as="offset" />
          </mxGeometry>
        </mxCell>
        <mxCell id="iLG_4-NIddKdy0gWmFLI-34" value="" style="edgeStyle=orthogonalEdgeStyle;rounded=0;orthogonalLoop=1;jettySize=auto;html=1;" parent="1" source="iLG_4-NIddKdy0gWmFLI-29" target="iLG_4-NIddKdy0gWmFLI-33" edge="1">
          <mxGeometry relative="1" as="geometry" />
        </mxCell>
        <mxCell id="iLG_4-NIddKdy0gWmFLI-50" value="False" style="edgeLabel;html=1;align=center;verticalAlign=middle;resizable=0;points=[];" parent="iLG_4-NIddKdy0gWmFLI-34" vertex="1" connectable="0">
          <mxGeometry x="-0.3667" y="-3" relative="1" as="geometry">
            <mxPoint as="offset" />
          </mxGeometry>
        </mxCell>
        <mxCell id="iLG_4-NIddKdy0gWmFLI-29" value="case 1:" style="rhombus;whiteSpace=wrap;html=1;" parent="1" vertex="1">
          <mxGeometry x="350" y="430" width="80" height="80" as="geometry" />
        </mxCell>
        <mxCell id="iLG_4-NIddKdy0gWmFLI-80" value="" style="edgeStyle=orthogonalEdgeStyle;rounded=0;orthogonalLoop=1;jettySize=auto;html=1;" parent="1" source="iLG_4-NIddKdy0gWmFLI-31" target="iLG_4-NIddKdy0gWmFLI-79" edge="1">
          <mxGeometry relative="1" as="geometry" />
        </mxCell>
        <mxCell id="iLG_4-NIddKdy0gWmFLI-31" value="So: A great day for a picnic!" style="shape=parallelogram;perimeter=parallelogramPerimeter;whiteSpace=wrap;html=1;fixedSize=1;" parent="1" vertex="1">
          <mxGeometry x="490" y="440" width="190" height="60" as="geometry" />
        </mxCell>
        <mxCell id="iLG_4-NIddKdy0gWmFLI-37" value="" style="edgeStyle=orthogonalEdgeStyle;rounded=0;orthogonalLoop=1;jettySize=auto;html=1;" parent="1" source="iLG_4-NIddKdy0gWmFLI-33" target="iLG_4-NIddKdy0gWmFLI-36" edge="1">
          <mxGeometry relative="1" as="geometry" />
        </mxCell>
        <mxCell id="iLG_4-NIddKdy0gWmFLI-55" value="True" style="edgeLabel;html=1;align=center;verticalAlign=middle;resizable=0;points=[];" parent="iLG_4-NIddKdy0gWmFLI-37" vertex="1" connectable="0">
          <mxGeometry x="-0.0127" relative="1" as="geometry">
            <mxPoint as="offset" />
          </mxGeometry>
        </mxCell>
        <mxCell id="iLG_4-NIddKdy0gWmFLI-45" style="edgeStyle=orthogonalEdgeStyle;rounded=0;orthogonalLoop=1;jettySize=auto;html=1;exitX=0.5;exitY=1;exitDx=0;exitDy=0;entryX=0.5;entryY=0;entryDx=0;entryDy=0;" parent="1" source="iLG_4-NIddKdy0gWmFLI-33" target="iLG_4-NIddKdy0gWmFLI-40" edge="1">
          <mxGeometry relative="1" as="geometry" />
        </mxCell>
        <mxCell id="iLG_4-NIddKdy0gWmFLI-51" value="False" style="edgeLabel;html=1;align=center;verticalAlign=middle;resizable=0;points=[];" parent="iLG_4-NIddKdy0gWmFLI-45" vertex="1" connectable="0">
          <mxGeometry x="-0.5798" y="2" relative="1" as="geometry">
            <mxPoint as="offset" />
          </mxGeometry>
        </mxCell>
        <mxCell id="iLG_4-NIddKdy0gWmFLI-33" value="case 2:" style="rhombus;whiteSpace=wrap;html=1;" parent="1" vertex="1">
          <mxGeometry x="350" y="540" width="80" height="80" as="geometry" />
        </mxCell>
        <mxCell id="iLG_4-NIddKdy0gWmFLI-86" style="edgeStyle=orthogonalEdgeStyle;rounded=0;orthogonalLoop=1;jettySize=auto;html=1;entryX=0;entryY=0.5;entryDx=0;entryDy=0;" parent="1" source="iLG_4-NIddKdy0gWmFLI-36" target="iLG_4-NIddKdy0gWmFLI-85" edge="1">
          <mxGeometry relative="1" as="geometry" />
        </mxCell>
        <mxCell id="iLG_4-NIddKdy0gWmFLI-36" value="So: Perfect weather to read a book inside!" style="shape=parallelogram;perimeter=parallelogramPerimeter;whiteSpace=wrap;html=1;fixedSize=1;" parent="1" vertex="1">
          <mxGeometry x="490" y="550" width="190" height="60" as="geometry" />
        </mxCell>
        <mxCell id="iLG_4-NIddKdy0gWmFLI-38" value="" style="edgeStyle=orthogonalEdgeStyle;rounded=0;orthogonalLoop=1;jettySize=auto;html=1;" parent="1" source="iLG_4-NIddKdy0gWmFLI-40" target="iLG_4-NIddKdy0gWmFLI-41" edge="1">
          <mxGeometry relative="1" as="geometry" />
        </mxCell>
        <mxCell id="iLG_4-NIddKdy0gWmFLI-56" value="True" style="edgeLabel;html=1;align=center;verticalAlign=middle;resizable=0;points=[];" parent="iLG_4-NIddKdy0gWmFLI-38" vertex="1" connectable="0">
          <mxGeometry x="-0.2032" relative="1" as="geometry">
            <mxPoint as="offset" />
          </mxGeometry>
        </mxCell>
        <mxCell id="iLG_4-NIddKdy0gWmFLI-39" value="" style="edgeStyle=orthogonalEdgeStyle;rounded=0;orthogonalLoop=1;jettySize=auto;html=1;" parent="1" source="iLG_4-NIddKdy0gWmFLI-40" target="iLG_4-NIddKdy0gWmFLI-43" edge="1">
          <mxGeometry relative="1" as="geometry" />
        </mxCell>
        <mxCell id="iLG_4-NIddKdy0gWmFLI-52" value="False" style="edgeLabel;html=1;align=center;verticalAlign=middle;resizable=0;points=[];" parent="iLG_4-NIddKdy0gWmFLI-39" vertex="1" connectable="0">
          <mxGeometry x="-0.2528" y="-3" relative="1" as="geometry">
            <mxPoint as="offset" />
          </mxGeometry>
        </mxCell>
        <mxCell id="iLG_4-NIddKdy0gWmFLI-40" value="case 3:" style="rhombus;whiteSpace=wrap;html=1;" parent="1" vertex="1">
          <mxGeometry x="350" y="650" width="80" height="80" as="geometry" />
        </mxCell>
        <mxCell id="iLG_4-NIddKdy0gWmFLI-87" style="edgeStyle=orthogonalEdgeStyle;rounded=0;orthogonalLoop=1;jettySize=auto;html=1;" parent="1" source="iLG_4-NIddKdy0gWmFLI-41" target="iLG_4-NIddKdy0gWmFLI-88" edge="1">
          <mxGeometry relative="1" as="geometry">
            <mxPoint x="750" y="690.0000000000005" as="targetPoint" />
          </mxGeometry>
        </mxCell>
        <mxCell id="iLG_4-NIddKdy0gWmFLI-41" value="So: Maybe visit a museum?" style="shape=parallelogram;perimeter=parallelogramPerimeter;whiteSpace=wrap;html=1;fixedSize=1;" parent="1" vertex="1">
          <mxGeometry x="490" y="660" width="190" height="60" as="geometry" />
        </mxCell>
        <mxCell id="iLG_4-NIddKdy0gWmFLI-42" value="" style="edgeStyle=orthogonalEdgeStyle;rounded=0;orthogonalLoop=1;jettySize=auto;html=1;" parent="1" source="iLG_4-NIddKdy0gWmFLI-43" target="iLG_4-NIddKdy0gWmFLI-44" edge="1">
          <mxGeometry relative="1" as="geometry" />
        </mxCell>
        <mxCell id="iLG_4-NIddKdy0gWmFLI-57" value="True" style="edgeLabel;html=1;align=center;verticalAlign=middle;resizable=0;points=[];" parent="iLG_4-NIddKdy0gWmFLI-42" vertex="1" connectable="0">
          <mxGeometry x="-0.1714" relative="1" as="geometry">
            <mxPoint as="offset" />
          </mxGeometry>
        </mxCell>
        <mxCell id="iLG_4-NIddKdy0gWmFLI-47" value="" style="edgeStyle=orthogonalEdgeStyle;rounded=0;orthogonalLoop=1;jettySize=auto;html=1;" parent="1" source="iLG_4-NIddKdy0gWmFLI-43" target="iLG_4-NIddKdy0gWmFLI-46" edge="1">
          <mxGeometry relative="1" as="geometry" />
        </mxCell>
        <mxCell id="iLG_4-NIddKdy0gWmFLI-53" value="False" style="edgeLabel;html=1;align=center;verticalAlign=middle;resizable=0;points=[];" parent="iLG_4-NIddKdy0gWmFLI-47" vertex="1" connectable="0">
          <mxGeometry x="-0.0583" y="-1" relative="1" as="geometry">
            <mxPoint as="offset" />
          </mxGeometry>
        </mxCell>
        <mxCell id="iLG_4-NIddKdy0gWmFLI-43" value="case 4:" style="rhombus;whiteSpace=wrap;html=1;" parent="1" vertex="1">
          <mxGeometry x="350" y="765" width="80" height="80" as="geometry" />
        </mxCell>
        <mxCell id="iLG_4-NIddKdy0gWmFLI-92" style="edgeStyle=orthogonalEdgeStyle;rounded=0;orthogonalLoop=1;jettySize=auto;html=1;entryX=0;entryY=0.5;entryDx=0;entryDy=0;" parent="1" source="iLG_4-NIddKdy0gWmFLI-44" target="iLG_4-NIddKdy0gWmFLI-89" edge="1">
          <mxGeometry relative="1" as="geometry" />
        </mxCell>
        <mxCell id="iLG_4-NIddKdy0gWmFLI-44" value="So: How about making a snowman" style="shape=parallelogram;perimeter=parallelogramPerimeter;whiteSpace=wrap;html=1;fixedSize=1;" parent="1" vertex="1">
          <mxGeometry x="490" y="775" width="190" height="60" as="geometry" />
        </mxCell>
        <mxCell id="iLG_4-NIddKdy0gWmFLI-49" value="" style="edgeStyle=orthogonalEdgeStyle;rounded=0;orthogonalLoop=1;jettySize=auto;html=1;" parent="1" source="iLG_4-NIddKdy0gWmFLI-46" target="iLG_4-NIddKdy0gWmFLI-48" edge="1">
          <mxGeometry relative="1" as="geometry" />
        </mxCell>
        <mxCell id="iLG_4-NIddKdy0gWmFLI-58" value="True" style="edgeLabel;html=1;align=center;verticalAlign=middle;resizable=0;points=[];" parent="iLG_4-NIddKdy0gWmFLI-49" vertex="1" connectable="0">
          <mxGeometry x="-0.1714" y="-3" relative="1" as="geometry">
            <mxPoint as="offset" />
          </mxGeometry>
        </mxCell>
        <mxCell id="iLG_4-NIddKdy0gWmFLI-60" value="False" style="edgeStyle=orthogonalEdgeStyle;rounded=0;orthogonalLoop=1;jettySize=auto;html=1;" parent="1" source="iLG_4-NIddKdy0gWmFLI-46" edge="1">
          <mxGeometry relative="1" as="geometry">
            <mxPoint x="390" y="985" as="targetPoint" />
          </mxGeometry>
        </mxCell>
        <mxCell id="iLG_4-NIddKdy0gWmFLI-46" value="case 5:" style="rhombus;whiteSpace=wrap;html=1;" parent="1" vertex="1">
          <mxGeometry x="350" y="870" width="80" height="80" as="geometry" />
        </mxCell>
        <mxCell id="iLG_4-NIddKdy0gWmFLI-91" style="edgeStyle=orthogonalEdgeStyle;rounded=0;orthogonalLoop=1;jettySize=auto;html=1;" parent="1" source="iLG_4-NIddKdy0gWmFLI-48" target="iLG_4-NIddKdy0gWmFLI-90" edge="1">
          <mxGeometry relative="1" as="geometry" />
        </mxCell>
        <mxCell id="iLG_4-NIddKdy0gWmFLI-48" value="So: Fly a kite if you&#39;ve got one!" style="shape=parallelogram;perimeter=parallelogramPerimeter;whiteSpace=wrap;html=1;fixedSize=1;" parent="1" vertex="1">
          <mxGeometry x="490" y="880" width="190" height="60" as="geometry" />
        </mxCell>
        <mxCell id="iLG_4-NIddKdy0gWmFLI-62" value="" style="edgeStyle=orthogonalEdgeStyle;rounded=0;orthogonalLoop=1;jettySize=auto;html=1;" parent="1" target="iLG_4-NIddKdy0gWmFLI-61" edge="1">
          <mxGeometry relative="1" as="geometry">
            <mxPoint x="430" y="1025" as="sourcePoint" />
          </mxGeometry>
        </mxCell>
        <mxCell id="iLG_4-NIddKdy0gWmFLI-59" value="default:" style="rhombus;whiteSpace=wrap;html=1;" parent="1" vertex="1">
          <mxGeometry x="350" y="985" width="80" height="80" as="geometry" />
        </mxCell>
        <mxCell id="iLG_4-NIddKdy0gWmFLI-63" style="edgeStyle=orthogonalEdgeStyle;rounded=0;orthogonalLoop=1;jettySize=auto;html=1;" parent="1" source="iLG_4-NIddKdy0gWmFLI-61" target="iLG_4-NIddKdy0gWmFLI-27" edge="1">
          <mxGeometry relative="1" as="geometry">
            <mxPoint x="205" y="350" as="targetPoint" />
            <Array as="points">
              <mxPoint x="205" y="672" />
              <mxPoint x="206" y="360" />
            </Array>
          </mxGeometry>
        </mxCell>
        <mxCell id="iLG_4-NIddKdy0gWmFLI-61" value="Choose weather conditions from the list!!!" style="shape=parallelogram;perimeter=parallelogramPerimeter;whiteSpace=wrap;html=1;fixedSize=1;" parent="1" vertex="1">
          <mxGeometry x="110" y="995" width="190" height="60" as="geometry" />
        </mxCell>
        <mxCell id="iLG_4-NIddKdy0gWmFLI-69" style="edgeStyle=orthogonalEdgeStyle;rounded=0;orthogonalLoop=1;jettySize=auto;html=1;entryX=0.5;entryY=0;entryDx=0;entryDy=0;" parent="1" source="iLG_4-NIddKdy0gWmFLI-67" target="iLG_4-NIddKdy0gWmFLI-29" edge="1">
          <mxGeometry relative="1" as="geometry" />
        </mxCell>
        <mxCell id="iLG_4-NIddKdy0gWmFLI-67" value="Enter the weather condition:" style="shape=parallelogram;perimeter=parallelogramPerimeter;whiteSpace=wrap;html=1;fixedSize=1;" parent="1" vertex="1">
          <mxGeometry x="330" y="340" width="120" height="60" as="geometry" />
        </mxCell>
        <mxCell id="iLG_4-NIddKdy0gWmFLI-93" style="edgeStyle=orthogonalEdgeStyle;rounded=0;orthogonalLoop=1;jettySize=auto;html=1;" parent="1" source="iLG_4-NIddKdy0gWmFLI-79" target="iLG_4-NIddKdy0gWmFLI-94" edge="1">
          <mxGeometry relative="1" as="geometry">
            <mxPoint x="940" y="470" as="targetPoint" />
          </mxGeometry>
        </mxCell>
        <mxCell id="iLG_4-NIddKdy0gWmFLI-79" value="correctEnter = true" style="shape=parallelogram;perimeter=parallelogramPerimeter;whiteSpace=wrap;html=1;fixedSize=1;" parent="1" vertex="1">
          <mxGeometry x="687" y="440" width="130" height="60" as="geometry" />
        </mxCell>
        <mxCell id="ijyvKppIt7p8xr8Du-Qc-3" style="edgeStyle=orthogonalEdgeStyle;rounded=0;orthogonalLoop=1;jettySize=auto;html=1;entryX=0.5;entryY=0;entryDx=0;entryDy=0;" edge="1" parent="1" source="iLG_4-NIddKdy0gWmFLI-85" target="iLG_4-NIddKdy0gWmFLI-94">
          <mxGeometry relative="1" as="geometry">
            <mxPoint x="860" y="470" as="targetPoint" />
          </mxGeometry>
        </mxCell>
        <mxCell id="iLG_4-NIddKdy0gWmFLI-85" value="correctEnter = true" style="shape=parallelogram;perimeter=parallelogramPerimeter;whiteSpace=wrap;html=1;fixedSize=1;" parent="1" vertex="1">
          <mxGeometry x="687" y="550" width="130" height="60" as="geometry" />
        </mxCell>
        <mxCell id="ijyvKppIt7p8xr8Du-Qc-4" style="edgeStyle=orthogonalEdgeStyle;rounded=0;orthogonalLoop=1;jettySize=auto;html=1;" edge="1" parent="1" source="iLG_4-NIddKdy0gWmFLI-88" target="iLG_4-NIddKdy0gWmFLI-94">
          <mxGeometry relative="1" as="geometry" />
        </mxCell>
        <mxCell id="iLG_4-NIddKdy0gWmFLI-88" value="correctEnter = true" style="shape=parallelogram;perimeter=parallelogramPerimeter;whiteSpace=wrap;html=1;fixedSize=1;" parent="1" vertex="1">
          <mxGeometry x="687" y="660" width="130" height="60" as="geometry" />
        </mxCell>
        <mxCell id="ijyvKppIt7p8xr8Du-Qc-5" style="edgeStyle=orthogonalEdgeStyle;rounded=0;orthogonalLoop=1;jettySize=auto;html=1;entryX=0.5;entryY=0;entryDx=0;entryDy=0;" edge="1" parent="1" source="iLG_4-NIddKdy0gWmFLI-89" target="iLG_4-NIddKdy0gWmFLI-94">
          <mxGeometry relative="1" as="geometry" />
        </mxCell>
        <mxCell id="iLG_4-NIddKdy0gWmFLI-89" value="correctEnter = true" style="shape=parallelogram;perimeter=parallelogramPerimeter;whiteSpace=wrap;html=1;fixedSize=1;" parent="1" vertex="1">
          <mxGeometry x="687" y="775" width="130" height="60" as="geometry" />
        </mxCell>
        <mxCell id="ijyvKppIt7p8xr8Du-Qc-6" style="edgeStyle=orthogonalEdgeStyle;rounded=0;orthogonalLoop=1;jettySize=auto;html=1;entryX=0.5;entryY=0;entryDx=0;entryDy=0;" edge="1" parent="1" source="iLG_4-NIddKdy0gWmFLI-90" target="iLG_4-NIddKdy0gWmFLI-94">
          <mxGeometry relative="1" as="geometry" />
        </mxCell>
        <mxCell id="iLG_4-NIddKdy0gWmFLI-90" value="correctEnter = true" style="shape=parallelogram;perimeter=parallelogramPerimeter;whiteSpace=wrap;html=1;fixedSize=1;" parent="1" vertex="1">
          <mxGeometry x="687" y="880" width="130" height="60" as="geometry" />
        </mxCell>
        <mxCell id="ijyvKppIt7p8xr8Du-Qc-24" style="edgeStyle=orthogonalEdgeStyle;rounded=0;orthogonalLoop=1;jettySize=auto;html=1;exitX=0.5;exitY=1;exitDx=0;exitDy=0;entryX=0.5;entryY=0;entryDx=0;entryDy=0;" edge="1" parent="1" source="iLG_4-NIddKdy0gWmFLI-94" target="ijyvKppIt7p8xr8Du-Qc-26">
          <mxGeometry relative="1" as="geometry">
            <mxPoint x="580" y="1060" as="targetPoint" />
          </mxGeometry>
        </mxCell>
        <mxCell id="iLG_4-NIddKdy0gWmFLI-94" value="cout:&lt;div&gt;As for the jacket&lt;/div&gt;" style="shape=parallelogram;perimeter=parallelogramPerimeter;whiteSpace=wrap;html=1;fixedSize=1;" parent="1" vertex="1">
          <mxGeometry x="830" y="935" width="120" height="60" as="geometry" />
        </mxCell>
        <mxCell id="iLG_4-NIddKdy0gWmFLI-103" value="" style="edgeStyle=orthogonalEdgeStyle;rounded=0;orthogonalLoop=1;jettySize=auto;html=1;" parent="1" source="iLG_4-NIddKdy0gWmFLI-100" target="iLG_4-NIddKdy0gWmFLI-102" edge="1">
          <mxGeometry relative="1" as="geometry" />
        </mxCell>
        <mxCell id="iLG_4-NIddKdy0gWmFLI-104" value="True" style="edgeLabel;html=1;align=center;verticalAlign=middle;resizable=0;points=[];" parent="iLG_4-NIddKdy0gWmFLI-103" vertex="1" connectable="0">
          <mxGeometry x="-0.1434" relative="1" as="geometry">
            <mxPoint as="offset" />
          </mxGeometry>
        </mxCell>
        <mxCell id="iLG_4-NIddKdy0gWmFLI-106" value="" style="edgeStyle=orthogonalEdgeStyle;rounded=0;orthogonalLoop=1;jettySize=auto;html=1;" parent="1" source="iLG_4-NIddKdy0gWmFLI-100" target="iLG_4-NIddKdy0gWmFLI-105" edge="1">
          <mxGeometry relative="1" as="geometry" />
        </mxCell>
        <mxCell id="iLG_4-NIddKdy0gWmFLI-108" value="False" style="edgeLabel;html=1;align=center;verticalAlign=middle;resizable=0;points=[];" parent="iLG_4-NIddKdy0gWmFLI-106" vertex="1" connectable="0">
          <mxGeometry x="0.0587" y="2" relative="1" as="geometry">
            <mxPoint as="offset" />
          </mxGeometry>
        </mxCell>
        <mxCell id="ijyvKppIt7p8xr8Du-Qc-14" value="" style="edgeStyle=orthogonalEdgeStyle;rounded=0;orthogonalLoop=1;jettySize=auto;html=1;" edge="1" parent="1" source="iLG_4-NIddKdy0gWmFLI-100" target="iLG_4-NIddKdy0gWmFLI-110">
          <mxGeometry relative="1" as="geometry" />
        </mxCell>
        <mxCell id="iLG_4-NIddKdy0gWmFLI-100" value="if (weatherCondition == 2 || weatherCondition == 4)" style="rhombus;whiteSpace=wrap;html=1;" parent="1" vertex="1">
          <mxGeometry x="1220" y="65" width="220" height="70" as="geometry" />
        </mxCell>
        <mxCell id="ijyvKppIt7p8xr8Du-Qc-22" style="edgeStyle=orthogonalEdgeStyle;rounded=0;orthogonalLoop=1;jettySize=auto;html=1;" edge="1" parent="1" source="iLG_4-NIddKdy0gWmFLI-102" target="iLG_4-NIddKdy0gWmFLI-110">
          <mxGeometry relative="1" as="geometry">
            <Array as="points">
              <mxPoint x="1110" y="205" />
            </Array>
          </mxGeometry>
        </mxCell>
        <mxCell id="iLG_4-NIddKdy0gWmFLI-102" value="You should take a&amp;nbsp;&lt;div&gt;jacket&lt;/div&gt;" style="shape=parallelogram;perimeter=parallelogramPerimeter;whiteSpace=wrap;html=1;fixedSize=1;" parent="1" vertex="1">
          <mxGeometry x="1050" y="70" width="120" height="60" as="geometry" />
        </mxCell>
        <mxCell id="ijyvKppIt7p8xr8Du-Qc-23" style="edgeStyle=orthogonalEdgeStyle;rounded=0;orthogonalLoop=1;jettySize=auto;html=1;" edge="1" parent="1" source="iLG_4-NIddKdy0gWmFLI-105" target="iLG_4-NIddKdy0gWmFLI-110">
          <mxGeometry relative="1" as="geometry">
            <Array as="points">
              <mxPoint x="1550" y="205" />
            </Array>
          </mxGeometry>
        </mxCell>
        <mxCell id="iLG_4-NIddKdy0gWmFLI-105" value="I think you don`t&amp;nbsp;&lt;div&gt;need a jacket&lt;/div&gt;" style="shape=parallelogram;perimeter=parallelogramPerimeter;whiteSpace=wrap;html=1;fixedSize=1;" parent="1" vertex="1">
          <mxGeometry x="1490" y="70" width="120" height="60" as="geometry" />
        </mxCell>
        <mxCell id="ijyvKppIt7p8xr8Du-Qc-15" value="" style="edgeStyle=orthogonalEdgeStyle;rounded=0;orthogonalLoop=1;jettySize=auto;html=1;" edge="1" parent="1" source="iLG_4-NIddKdy0gWmFLI-110" target="iLG_4-NIddKdy0gWmFLI-112">
          <mxGeometry relative="1" as="geometry" />
        </mxCell>
        <mxCell id="iLG_4-NIddKdy0gWmFLI-110" value="As for the shoes" style="shape=parallelogram;perimeter=parallelogramPerimeter;whiteSpace=wrap;html=1;fixedSize=1;" parent="1" vertex="1">
          <mxGeometry x="1270" y="175" width="120" height="60" as="geometry" />
        </mxCell>
        <mxCell id="iLG_4-NIddKdy0gWmFLI-131" value="" style="edgeStyle=orthogonalEdgeStyle;rounded=0;orthogonalLoop=1;jettySize=auto;html=1;" parent="1" source="iLG_4-NIddKdy0gWmFLI-112" target="iLG_4-NIddKdy0gWmFLI-130" edge="1">
          <mxGeometry relative="1" as="geometry" />
        </mxCell>
        <mxCell id="ijyvKppIt7p8xr8Du-Qc-9" value="" style="edgeStyle=orthogonalEdgeStyle;rounded=0;orthogonalLoop=1;jettySize=auto;html=1;" edge="1" parent="1" source="iLG_4-NIddKdy0gWmFLI-112" target="iLG_4-NIddKdy0gWmFLI-114">
          <mxGeometry relative="1" as="geometry" />
        </mxCell>
        <mxCell id="iLG_4-NIddKdy0gWmFLI-112" value="if&lt;div&gt;(weatherCondition ==1)&lt;/div&gt;" style="rhombus;whiteSpace=wrap;html=1;" parent="1" vertex="1">
          <mxGeometry x="1270" y="265" width="120" height="95" as="geometry" />
        </mxCell>
        <mxCell id="iLG_4-NIddKdy0gWmFLI-129" value="" style="edgeStyle=orthogonalEdgeStyle;rounded=0;orthogonalLoop=1;jettySize=auto;html=1;" parent="1" source="iLG_4-NIddKdy0gWmFLI-114" target="iLG_4-NIddKdy0gWmFLI-128" edge="1">
          <mxGeometry relative="1" as="geometry" />
        </mxCell>
        <mxCell id="ijyvKppIt7p8xr8Du-Qc-10" value="" style="edgeStyle=orthogonalEdgeStyle;rounded=0;orthogonalLoop=1;jettySize=auto;html=1;" edge="1" parent="1" source="iLG_4-NIddKdy0gWmFLI-114" target="iLG_4-NIddKdy0gWmFLI-116">
          <mxGeometry relative="1" as="geometry" />
        </mxCell>
        <mxCell id="iLG_4-NIddKdy0gWmFLI-114" value="if&lt;div&gt;(weatherCondition ==2)&lt;/div&gt;" style="rhombus;whiteSpace=wrap;html=1;" parent="1" vertex="1">
          <mxGeometry x="1270" y="381.25" width="120" height="95" as="geometry" />
        </mxCell>
        <mxCell id="iLG_4-NIddKdy0gWmFLI-127" value="" style="edgeStyle=orthogonalEdgeStyle;rounded=0;orthogonalLoop=1;jettySize=auto;html=1;" parent="1" source="iLG_4-NIddKdy0gWmFLI-116" target="iLG_4-NIddKdy0gWmFLI-126" edge="1">
          <mxGeometry relative="1" as="geometry" />
        </mxCell>
        <mxCell id="ijyvKppIt7p8xr8Du-Qc-11" value="" style="edgeStyle=orthogonalEdgeStyle;rounded=0;orthogonalLoop=1;jettySize=auto;html=1;" edge="1" parent="1" source="iLG_4-NIddKdy0gWmFLI-116" target="iLG_4-NIddKdy0gWmFLI-118">
          <mxGeometry relative="1" as="geometry" />
        </mxCell>
        <mxCell id="iLG_4-NIddKdy0gWmFLI-116" value="if&lt;div&gt;(weatherCondition ==3)&lt;/div&gt;" style="rhombus;whiteSpace=wrap;html=1;" parent="1" vertex="1">
          <mxGeometry x="1270" y="520.25" width="120" height="95" as="geometry" />
        </mxCell>
        <mxCell id="iLG_4-NIddKdy0gWmFLI-125" value="" style="edgeStyle=orthogonalEdgeStyle;rounded=0;orthogonalLoop=1;jettySize=auto;html=1;" parent="1" source="iLG_4-NIddKdy0gWmFLI-118" target="iLG_4-NIddKdy0gWmFLI-124" edge="1">
          <mxGeometry relative="1" as="geometry" />
        </mxCell>
        <mxCell id="ijyvKppIt7p8xr8Du-Qc-12" value="" style="edgeStyle=orthogonalEdgeStyle;rounded=0;orthogonalLoop=1;jettySize=auto;html=1;" edge="1" parent="1" source="iLG_4-NIddKdy0gWmFLI-118" target="iLG_4-NIddKdy0gWmFLI-120">
          <mxGeometry relative="1" as="geometry" />
        </mxCell>
        <mxCell id="iLG_4-NIddKdy0gWmFLI-118" value="if&lt;div&gt;(weatherCondition ==4)&lt;/div&gt;" style="rhombus;whiteSpace=wrap;html=1;" parent="1" vertex="1">
          <mxGeometry x="1270" y="651.25" width="120" height="95" as="geometry" />
        </mxCell>
        <mxCell id="iLG_4-NIddKdy0gWmFLI-123" value="" style="edgeStyle=orthogonalEdgeStyle;rounded=0;orthogonalLoop=1;jettySize=auto;html=1;" parent="1" source="iLG_4-NIddKdy0gWmFLI-120" target="iLG_4-NIddKdy0gWmFLI-122" edge="1">
          <mxGeometry relative="1" as="geometry" />
        </mxCell>
        <mxCell id="ijyvKppIt7p8xr8Du-Qc-20" style="edgeStyle=orthogonalEdgeStyle;rounded=0;orthogonalLoop=1;jettySize=auto;html=1;entryX=0.5;entryY=0;entryDx=0;entryDy=0;" edge="1" parent="1" source="iLG_4-NIddKdy0gWmFLI-122" target="iLG_4-NIddKdy0gWmFLI-132">
          <mxGeometry relative="1" as="geometry">
            <mxPoint x="1050" y="745" as="targetPoint" />
          </mxGeometry>
        </mxCell>
        <mxCell id="iLG_4-NIddKdy0gWmFLI-122" value="Put on something" style="shape=parallelogram;perimeter=parallelogramPerimeter;whiteSpace=wrap;html=1;fixedSize=1;" parent="1" vertex="1">
          <mxGeometry x="1140" y="791.25" width="120" height="60" as="geometry" />
        </mxCell>
        <mxCell id="ijyvKppIt7p8xr8Du-Qc-19" style="edgeStyle=orthogonalEdgeStyle;rounded=0;orthogonalLoop=1;jettySize=auto;html=1;" edge="1" parent="1" source="iLG_4-NIddKdy0gWmFLI-124" target="iLG_4-NIddKdy0gWmFLI-132">
          <mxGeometry relative="1" as="geometry" />
        </mxCell>
        <mxCell id="iLG_4-NIddKdy0gWmFLI-124" value="Snow boots will&lt;div&gt;keep your feet&lt;/div&gt;&lt;div&gt;warm!&lt;/div&gt;" style="shape=parallelogram;perimeter=parallelogramPerimeter;whiteSpace=wrap;html=1;fixedSize=1;" parent="1" vertex="1">
          <mxGeometry x="1140" y="668.75" width="120" height="60" as="geometry" />
        </mxCell>
        <mxCell id="ijyvKppIt7p8xr8Du-Qc-18" style="edgeStyle=orthogonalEdgeStyle;rounded=0;orthogonalLoop=1;jettySize=auto;html=1;entryX=0.5;entryY=0;entryDx=0;entryDy=0;" edge="1" parent="1" source="iLG_4-NIddKdy0gWmFLI-126" target="iLG_4-NIddKdy0gWmFLI-132">
          <mxGeometry relative="1" as="geometry" />
        </mxCell>
        <mxCell id="iLG_4-NIddKdy0gWmFLI-126" value="Any shoe is fine&amp;nbsp;&lt;div&gt;today&lt;/div&gt;" style="shape=parallelogram;perimeter=parallelogramPerimeter;whiteSpace=wrap;html=1;fixedSize=1;" parent="1" vertex="1">
          <mxGeometry x="1140" y="537.75" width="120" height="60" as="geometry" />
        </mxCell>
        <mxCell id="ijyvKppIt7p8xr8Du-Qc-17" style="edgeStyle=orthogonalEdgeStyle;rounded=0;orthogonalLoop=1;jettySize=auto;html=1;entryX=0.5;entryY=0;entryDx=0;entryDy=0;" edge="1" parent="1" source="iLG_4-NIddKdy0gWmFLI-128" target="iLG_4-NIddKdy0gWmFLI-132">
          <mxGeometry relative="1" as="geometry">
            <mxPoint x="1000" y="805" as="targetPoint" />
          </mxGeometry>
        </mxCell>
        <mxCell id="iLG_4-NIddKdy0gWmFLI-128" value="Rain boots are a&lt;div&gt;good idea!&lt;/div&gt;" style="shape=parallelogram;perimeter=parallelogramPerimeter;whiteSpace=wrap;html=1;fixedSize=1;" parent="1" vertex="1">
          <mxGeometry x="1140" y="398.75" width="120" height="60" as="geometry" />
        </mxCell>
        <mxCell id="ijyvKppIt7p8xr8Du-Qc-16" style="edgeStyle=orthogonalEdgeStyle;rounded=0;orthogonalLoop=1;jettySize=auto;html=1;entryX=0.5;entryY=0;entryDx=0;entryDy=0;" edge="1" parent="1" source="iLG_4-NIddKdy0gWmFLI-130" target="iLG_4-NIddKdy0gWmFLI-132">
          <mxGeometry relative="1" as="geometry" />
        </mxCell>
        <mxCell id="iLG_4-NIddKdy0gWmFLI-130" value="Put on your favourite sneakers" style="shape=parallelogram;perimeter=parallelogramPerimeter;whiteSpace=wrap;html=1;fixedSize=1;" parent="1" vertex="1">
          <mxGeometry x="1140" y="282.5" width="120" height="60" as="geometry" />
        </mxCell>
        <mxCell id="iLG_4-NIddKdy0gWmFLI-132" value="End" style="ellipse;whiteSpace=wrap;html=1;" parent="1" vertex="1">
          <mxGeometry x="940" y="845" width="120" height="60" as="geometry" />
        </mxCell>
        <mxCell id="iLG_4-NIddKdy0gWmFLI-120" value="else" style="rhombus;whiteSpace=wrap;html=1;" parent="1" vertex="1">
          <mxGeometry x="1290" y="781.25" width="80" height="80" as="geometry" />
        </mxCell>
        <mxCell id="ijyvKppIt7p8xr8Du-Qc-26" value="1" style="ellipse;whiteSpace=wrap;html=1;" vertex="1" parent="1">
          <mxGeometry x="550" y="1055" width="45" height="40" as="geometry" />
        </mxCell>
        <mxCell id="ijyvKppIt7p8xr8Du-Qc-28" style="edgeStyle=orthogonalEdgeStyle;rounded=0;orthogonalLoop=1;jettySize=auto;html=1;entryX=0.5;entryY=0;entryDx=0;entryDy=0;" edge="1" parent="1" source="ijyvKppIt7p8xr8Du-Qc-27" target="iLG_4-NIddKdy0gWmFLI-100">
          <mxGeometry relative="1" as="geometry" />
        </mxCell>
        <mxCell id="ijyvKppIt7p8xr8Du-Qc-27" value="1" style="ellipse;whiteSpace=wrap;html=1;" vertex="1" parent="1">
          <mxGeometry x="1310" width="40" height="40" as="geometry" />
        </mxCell>
      </root>
    </mxGraphModel>
  </diagram>
</mxfile>
